<mxfile host="app.diagrams.net" modified="2021-01-12T16:34:55.349Z" agent="5.0 (Windows NT 10.0; Win64; x64) AppleWebKit/537.36 (KHTML, like Gecko) Chrome/87.0.4280.141 Safari/537.36" etag="BwQpbFDFD9_pdALM4-uB" version="14.1.9" type="github">
  <diagram id="xdE4V_Fr4mios66Aybjj" name="Page-1">
    <mxGraphModel dx="2062" dy="1122" grid="1" gridSize="10" guides="1" tooltips="1" connect="1" arrows="1" fold="1" page="1" pageScale="1" pageWidth="850" pageHeight="1100" math="0" shadow="0">
      <root>
        <mxCell id="0" />
        <mxCell id="1" parent="0" />
        <mxCell id="JcyahLMTPuSojwTMHPag-1" value="" style="rounded=0;whiteSpace=wrap;html=1;" vertex="1" parent="1">
          <mxGeometry x="40" y="40" width="770" height="1040" as="geometry" />
        </mxCell>
        <mxCell id="JcyahLMTPuSojwTMHPag-2" value="" style="rounded=0;whiteSpace=wrap;html=1;" vertex="1" parent="1">
          <mxGeometry x="40" y="40" width="770" height="130" as="geometry" />
        </mxCell>
        <mxCell id="JcyahLMTPuSojwTMHPag-3" value="" style="verticalLabelPosition=bottom;shadow=0;dashed=0;align=center;html=1;verticalAlign=top;strokeWidth=1;shape=mxgraph.mockup.misc.map;" vertex="1" parent="1">
          <mxGeometry x="62.5" y="360" width="305" height="270" as="geometry" />
        </mxCell>
        <mxCell id="JcyahLMTPuSojwTMHPag-13" value="" style="verticalLabelPosition=bottom;html=1;verticalAlign=top;align=center;strokeColor=none;fillColor=#00BEF2;shape=mxgraph.azure.user;fontSize=24;" vertex="1" parent="1">
          <mxGeometry x="115" y="70" width="47.5" height="50" as="geometry" />
        </mxCell>
        <mxCell id="JcyahLMTPuSojwTMHPag-14" value="Name" style="text;html=1;strokeColor=none;fillColor=none;align=center;verticalAlign=middle;whiteSpace=wrap;rounded=0;fontSize=24;" vertex="1" parent="1">
          <mxGeometry x="195" y="70" width="40" height="20" as="geometry" />
        </mxCell>
        <mxCell id="JcyahLMTPuSojwTMHPag-15" value="" style="verticalLabelPosition=bottom;shadow=0;dashed=0;align=center;html=1;verticalAlign=top;strokeWidth=1;shape=mxgraph.mockup.misc.shoppingCart;strokeColor=#999999;fontSize=24;" vertex="1" parent="1">
          <mxGeometry x="730" y="55" width="50" height="50" as="geometry" />
        </mxCell>
        <mxCell id="JcyahLMTPuSojwTMHPag-17" value="$ 0" style="text;html=1;strokeColor=none;fillColor=none;align=center;verticalAlign=middle;whiteSpace=wrap;rounded=0;fontSize=24;" vertex="1" parent="1">
          <mxGeometry x="650" y="70" width="70" height="20" as="geometry" />
        </mxCell>
        <mxCell id="JcyahLMTPuSojwTMHPag-18" value="&lt;font style=&quot;font-size: 18px&quot;&gt;505 Madeup Street&lt;/font&gt;" style="text;html=1;strokeColor=none;fillColor=none;align=center;verticalAlign=middle;whiteSpace=wrap;rounded=0;fontSize=24;" vertex="1" parent="1">
          <mxGeometry x="150" y="100" width="140" height="40" as="geometry" />
        </mxCell>
        <mxCell id="JcyahLMTPuSojwTMHPag-26" value="505 Madeup Street" style="fillColor=none;strokeColor=none;html=1;fontSize=11;fontStyle=0;align=left;fontColor=#596780;fontStyle=1;fontSize=11" vertex="1" parent="1">
          <mxGeometry x="60" y="660" width="240" height="20" as="geometry" />
        </mxCell>
        <mxCell id="JcyahLMTPuSojwTMHPag-27" value="You are located 13km away from CheeseCake Factory." style="rounded=1;arcSize=9;align=left;spacingLeft=5;strokeColor=#4C9AFF;html=1;strokeWidth=2;fontSize=12" vertex="1" parent="1">
          <mxGeometry x="60" y="685" width="305" height="33" as="geometry" />
        </mxCell>
        <mxCell id="JcyahLMTPuSojwTMHPag-28" value="" style="rounded=0;whiteSpace=wrap;html=1;fontSize=24;" vertex="1" parent="1">
          <mxGeometry x="40" y="960" width="770" height="120" as="geometry" />
        </mxCell>
        <mxCell id="JcyahLMTPuSojwTMHPag-29" value="&lt;font style=&quot;font-size: 14px&quot;&gt;Note: Hermit charges delivery fee based on distance.&lt;/font&gt;" style="text;html=1;strokeColor=none;fillColor=none;align=center;verticalAlign=middle;whiteSpace=wrap;rounded=0;fontSize=24;" vertex="1" parent="1">
          <mxGeometry x="20" y="960" width="390" height="30" as="geometry" />
        </mxCell>
        <mxCell id="JcyahLMTPuSojwTMHPag-30" value="&lt;span style=&quot;color: rgba(255 , 255 , 255 , 0.5) ; font-family: , &amp;#34;blinkmacsystemfont&amp;#34; , &amp;#34;segoe ui&amp;#34; , &amp;#34;roboto&amp;#34; , &amp;#34;helvetica neue&amp;#34; , &amp;#34;arial&amp;#34; , &amp;#34;noto sans&amp;#34; , sans-serif , &amp;#34;apple color emoji&amp;#34; , &amp;#34;segoe ui emoji&amp;#34; , &amp;#34;segoe ui symbol&amp;#34; , &amp;#34;noto color emoji&amp;#34; ; font-size: 12.8px ; background-color: rgb(52 , 58 , 64)&quot;&gt;Copyright Â© 2021 - The A Team&lt;/span&gt;" style="text;html=1;strokeColor=none;fillColor=none;align=center;verticalAlign=middle;whiteSpace=wrap;rounded=0;fontSize=24;" vertex="1" parent="1">
          <mxGeometry x="210" y="1005" width="390" height="30" as="geometry" />
        </mxCell>
        <mxCell id="JcyahLMTPuSojwTMHPag-52" value="Order Received" style="html=1;fillColor=none;strokeColor=none;fontSize=11;align=left;fontColor=#596780;whiteSpace=wrap;" vertex="1" parent="1">
          <mxGeometry x="60" y="280" width="80" height="20" as="geometry" />
        </mxCell>
        <mxCell id="JcyahLMTPuSojwTMHPag-53" value="Preparing Order" style="html=1;fillColor=none;strokeColor=none;fontSize=11;align=left;fontColor=#000000;whiteSpace=wrap;" vertex="1" parent="1">
          <mxGeometry x="235" y="280" width="90" height="20" as="geometry" />
        </mxCell>
        <mxCell id="JcyahLMTPuSojwTMHPag-55" value="Order Ready" style="html=1;fillColor=none;strokeColor=none;fontSize=11;align=left;fontColor=#596780;whiteSpace=wrap;" vertex="1" parent="1">
          <mxGeometry x="390" y="280" width="70" height="20" as="geometry" />
        </mxCell>
        <mxCell id="JcyahLMTPuSojwTMHPag-57" value="" style="html=1;shadow=0;dashed=0;shape=mxgraph.bootstrap.rrect;rSize=5;fillColor=#E9ECEF;strokeColor=none;" vertex="1" parent="1">
          <mxGeometry x="60" y="250" width="740" height="20" as="geometry" />
        </mxCell>
        <mxCell id="JcyahLMTPuSojwTMHPag-58" value="" style="html=1;shadow=0;dashed=0;shape=mxgraph.bootstrap.leftButton;rSize=5;fillColor=#0085FC;strokeColor=none;resizeHeight=1;" vertex="1" parent="JcyahLMTPuSojwTMHPag-57">
          <mxGeometry width="250" height="20" relative="1" as="geometry" />
        </mxCell>
        <mxCell id="JcyahLMTPuSojwTMHPag-61" value="Order out for delivery" style="html=1;fillColor=none;strokeColor=none;fontSize=11;align=left;fontColor=#596780;whiteSpace=wrap;" vertex="1" parent="1">
          <mxGeometry x="530" y="280" width="110" height="20" as="geometry" />
        </mxCell>
        <mxCell id="JcyahLMTPuSojwTMHPag-62" value="Order Delivered" style="html=1;fillColor=none;strokeColor=none;fontSize=11;align=left;fontColor=#596780;whiteSpace=wrap;" vertex="1" parent="1">
          <mxGeometry x="710" y="280" width="80" height="20" as="geometry" />
        </mxCell>
        <mxCell id="JcyahLMTPuSojwTMHPag-63" value="&lt;h1&gt;Tracking Order&lt;/h1&gt;" style="text;html=1;strokeColor=none;fillColor=none;spacing=5;spacingTop=-20;whiteSpace=wrap;overflow=hidden;rounded=0;" vertex="1" parent="1">
          <mxGeometry x="70" y="190" width="190" height="40" as="geometry" />
        </mxCell>
        <mxCell id="JcyahLMTPuSojwTMHPag-66" value="" style="rounded=0;whiteSpace=wrap;html=1;" vertex="1" parent="1">
          <mxGeometry x="425" y="360" width="355" height="270" as="geometry" />
        </mxCell>
        <mxCell id="JcyahLMTPuSojwTMHPag-68" value="&lt;h1&gt;Estimated Time of Arrival&lt;/h1&gt;" style="text;html=1;strokeColor=none;fillColor=none;spacing=5;spacingTop=-20;whiteSpace=wrap;overflow=hidden;rounded=0;" vertex="1" parent="1">
          <mxGeometry x="447.5" y="430" width="310" height="40" as="geometry" />
        </mxCell>
        <mxCell id="JcyahLMTPuSojwTMHPag-69" value="&lt;font style=&quot;font-size: 56px&quot;&gt;7:30 pm&lt;/font&gt;" style="text;html=1;strokeColor=none;fillColor=none;align=center;verticalAlign=middle;whiteSpace=wrap;rounded=0;" vertex="1" parent="1">
          <mxGeometry x="497.5" y="490" width="210" height="120" as="geometry" />
        </mxCell>
        <mxCell id="JcyahLMTPuSojwTMHPag-70" value="&lt;h1&gt;Order Placed:&lt;/h1&gt;" style="text;html=1;strokeColor=none;fillColor=none;spacing=5;spacingTop=-20;whiteSpace=wrap;overflow=hidden;rounded=0;" vertex="1" parent="1">
          <mxGeometry x="447.5" y="360" width="172.5" height="40" as="geometry" />
        </mxCell>
        <mxCell id="JcyahLMTPuSojwTMHPag-71" value="&lt;font style=&quot;font-size: 24px&quot;&gt;6:40 pm&lt;/font&gt;" style="text;html=1;strokeColor=none;fillColor=none;align=center;verticalAlign=middle;whiteSpace=wrap;rounded=0;" vertex="1" parent="1">
          <mxGeometry x="660" y="365" width="107.5" height="30" as="geometry" />
        </mxCell>
      </root>
    </mxGraphModel>
  </diagram>
</mxfile>
